<svg xmlns="http://www.w3.org/2000/svg" width="300" height="300" viewBox="0 0 300 300">
  <!-- very subtle dermal-ridge texture (faint, premium). Tinted + faded to ~2% by CSS mask. -->
  <g fill="none" stroke="#000" stroke-width="1.3" stroke-linecap="round">
    <path d="M0 24 q 37.5 -7 75 0 t 75 0 t 75 0 t 75 0"/>
    <path d="M0 54 q 37.5 7 75 0 t 75 0 t 75 0 t 75 0"/>
    <path d="M0 84 q 37.5 -7 75 0 t 75 0 t 75 0 t 75 0"/>
    <path d="M0 114 q 37.5 7 75 0 t 75 0 t 75 0 t 75 0"/>
    <path d="M0 144 q 37.5 -7 75 0 t 75 0 t 75 0 t 75 0"/>
    <path d="M0 174 q 37.5 7 75 0 t 75 0 t 75 0 t 75 0"/>
    <path d="M0 204 q 37.5 -7 75 0 t 75 0 t 75 0 t 75 0"/>
    <path d="M0 234 q 37.5 7 75 0 t 75 0 t 75 0 t 75 0"/>
    <path d="M0 264 q 37.5 -7 75 0 t 75 0 t 75 0 t 75 0"/>
    <path d="M0 294 q 37.5 7 75 0 t 75 0 t 75 0 t 75 0"/>
  </g>
</svg>
